<svg width="276" height="494" viewBox="0 0 276 494" fill="none" xmlns="http://www.w3.org/2000/svg">
<g filter="url(#filter0_f_105_897)">
<path d="M241 237C241 222.161 238.077 207.467 232.398 193.757C226.72 180.047 218.396 167.59 207.903 157.097C197.41 146.604 184.953 138.28 171.243 132.602C157.533 126.923 142.839 124 128 124L128 237H241Z" fill="#195BA7"/>
</g>
<g filter="url(#filter1_f_105_897)">
<path d="M230 117C230 94.6507 223.373 72.8033 210.956 54.2206C198.539 35.6378 180.891 21.1543 160.243 12.6016C139.595 4.04891 116.875 1.81113 94.9548 6.17126C73.0349 10.5314 52.9003 21.2936 37.0969 37.0969C21.2936 52.9003 10.5314 73.0349 6.17126 94.9548C1.81113 116.875 4.04891 139.595 12.6016 160.243C21.1543 180.891 35.6378 198.539 54.2206 210.956C72.8033 223.373 94.6507 230 117 230V117H230Z" fill="#195BA7"/>
</g>
<g filter="url(#filter2_f_105_897)">
<path d="M128 358C142.839 358 157.533 355.077 171.243 349.398C184.953 343.72 197.41 335.396 207.903 324.903C218.396 314.41 226.72 301.953 232.398 288.243C238.077 274.533 241 259.839 241 245L128 245L128 358Z" fill="#195BA7"/>
</g>
<g filter="url(#filter3_f_105_897)">
<path d="M116 422C92.3957 422 69.7582 412.676 53.0675 396.079C36.3768 379.482 27 356.972 27 333.5C27 310.028 36.3768 287.518 53.0675 270.921C69.7582 254.324 92.3957 245 116 245V333.5L116 422Z" fill="#195BA7"/>
</g>
<g filter="url(#filter4_f_105_897)">
<path d="M272 422C272 412.545 270.138 403.182 266.519 394.447C262.901 385.711 257.598 377.774 250.912 371.088C244.226 364.402 236.289 359.099 227.553 355.481C218.818 351.862 209.455 350 200 350C190.545 350 181.182 351.862 172.447 355.481C163.711 359.099 155.774 364.402 149.088 371.088C142.402 377.774 137.099 385.711 133.481 394.447C129.862 403.182 128 412.545 128 422L200 422H272Z" fill="#195BA7"/>
</g>
<defs>
<filter id="filter0_f_105_897" x="124" y="120" width="121" height="121" filterUnits="userSpaceOnUse" color-interpolation-filters="sRGB">
<feFlood flood-opacity="0" result="BackgroundImageFix"/>
<feBlend mode="normal" in="SourceGraphic" in2="BackgroundImageFix" result="shape"/>
<feGaussianBlur stdDeviation="2" result="effect1_foregroundBlur_105_897"/>
</filter>
<filter id="filter1_f_105_897" x="0" y="0" width="234" height="234" filterUnits="userSpaceOnUse" color-interpolation-filters="sRGB">
<feFlood flood-opacity="0" result="BackgroundImageFix"/>
<feBlend mode="normal" in="SourceGraphic" in2="BackgroundImageFix" result="shape"/>
<feGaussianBlur stdDeviation="2" result="effect1_foregroundBlur_105_897"/>
</filter>
<filter id="filter2_f_105_897" x="124" y="241" width="121" height="121" filterUnits="userSpaceOnUse" color-interpolation-filters="sRGB">
<feFlood flood-opacity="0" result="BackgroundImageFix"/>
<feBlend mode="normal" in="SourceGraphic" in2="BackgroundImageFix" result="shape"/>
<feGaussianBlur stdDeviation="2" result="effect1_foregroundBlur_105_897"/>
</filter>
<filter id="filter3_f_105_897" x="23" y="241" width="97" height="185" filterUnits="userSpaceOnUse" color-interpolation-filters="sRGB">
<feFlood flood-opacity="0" result="BackgroundImageFix"/>
<feBlend mode="normal" in="SourceGraphic" in2="BackgroundImageFix" result="shape"/>
<feGaussianBlur stdDeviation="2" result="effect1_foregroundBlur_105_897"/>
</filter>
<filter id="filter4_f_105_897" x="124" y="346" width="152" height="80" filterUnits="userSpaceOnUse" color-interpolation-filters="sRGB">
<feFlood flood-opacity="0" result="BackgroundImageFix"/>
<feBlend mode="normal" in="SourceGraphic" in2="BackgroundImageFix" result="shape"/>
<feGaussianBlur stdDeviation="2" result="effect1_foregroundBlur_105_897"/>
</filter>
</defs>
</svg>
